<mxfile host="app.diagrams.net" modified="2022-02-22T10:27:22.910Z" agent="5.0 (Windows NT 10.0; Win64; x64) AppleWebKit/537.36 (KHTML, like Gecko) Chrome/98.0.4758.102 Safari/537.36" etag="TAuDtlUhBYznZlv_UwRo" version="16.6.2" type="github">
  <diagram id="1s3PK2zoFUWgRHlAh5T_" name="Page-1">
    <mxGraphModel dx="1037" dy="587" grid="1" gridSize="10" guides="1" tooltips="1" connect="1" arrows="1" fold="1" page="1" pageScale="1" pageWidth="2000" pageHeight="2000" math="0" shadow="0">
      <root>
        <mxCell id="0" />
        <mxCell id="1" parent="0" />
        <mxCell id="0yGL5cdIM-8PEKx--pCx-1" value="Server" style="rounded=1;whiteSpace=wrap;html=1;" vertex="1" parent="1">
          <mxGeometry x="280" y="1570" width="120" height="60" as="geometry" />
        </mxCell>
        <mxCell id="0yGL5cdIM-8PEKx--pCx-2" value="Create DB_Class" style="rounded=1;whiteSpace=wrap;html=1;" vertex="1" parent="1">
          <mxGeometry x="280" y="1470" width="120" height="60" as="geometry" />
        </mxCell>
        <mxCell id="0yGL5cdIM-8PEKx--pCx-3" value="CreateGame" style="rounded=1;whiteSpace=wrap;html=1;" vertex="1" parent="1">
          <mxGeometry x="245" y="1380" width="190" height="60" as="geometry" />
        </mxCell>
        <mxCell id="0yGL5cdIM-8PEKx--pCx-4" value="CreateChat" style="rounded=1;whiteSpace=wrap;html=1;" vertex="1" parent="1">
          <mxGeometry x="470" y="1380" width="120" height="60" as="geometry" />
        </mxCell>
        <mxCell id="0yGL5cdIM-8PEKx--pCx-5" value="Create Location" style="rounded=1;whiteSpace=wrap;html=1;" vertex="1" parent="1">
          <mxGeometry x="470" y="1260" width="120" height="60" as="geometry" />
        </mxCell>
        <mxCell id="0yGL5cdIM-8PEKx--pCx-6" value="Create Space Object" style="rounded=1;whiteSpace=wrap;html=1;" vertex="1" parent="1">
          <mxGeometry x="640" y="1260" width="120" height="60" as="geometry" />
        </mxCell>
        <mxCell id="0yGL5cdIM-8PEKx--pCx-7" value="Create Planet" style="rounded=1;whiteSpace=wrap;html=1;" vertex="1" parent="1">
          <mxGeometry x="810" y="1260" width="120" height="60" as="geometry" />
        </mxCell>
        <mxCell id="0yGL5cdIM-8PEKx--pCx-8" value="Create Static Space Object" style="rounded=1;whiteSpace=wrap;html=1;" vertex="1" parent="1">
          <mxGeometry x="980" y="1260" width="120" height="60" as="geometry" />
        </mxCell>
        <mxCell id="0yGL5cdIM-8PEKx--pCx-9" value="Create mobs" style="rounded=1;whiteSpace=wrap;html=1;" vertex="1" parent="1">
          <mxGeometry x="470" y="1170" width="120" height="60" as="geometry" />
        </mxCell>
      </root>
    </mxGraphModel>
  </diagram>
</mxfile>
